<mxfile host="Electron" modified="2024-08-07T02:37:40.832Z" agent="Mozilla/5.0 (Windows NT 10.0; Win64; x64) AppleWebKit/537.36 (KHTML, like Gecko) draw.io/22.0.2 Chrome/114.0.5735.289 Electron/25.8.4 Safari/537.36" etag="SLHDIezU9xAAlqLCjAvY" version="22.0.2" type="device">
  <diagram name="第 1 页" id="OV38u8bZRWVGrBhABrb8">
    <mxGraphModel dx="1015" dy="700" grid="1" gridSize="10" guides="1" tooltips="1" connect="1" arrows="1" fold="1" page="1" pageScale="1" pageWidth="1169" pageHeight="827" math="0" shadow="0">
      <root>
        <mxCell id="0" />
        <mxCell id="1" parent="0" />
        <mxCell id="kR41oFxlcHud7mC-6AMT-6" style="edgeStyle=orthogonalEdgeStyle;rounded=0;orthogonalLoop=1;jettySize=auto;html=1;exitX=0.25;exitY=1;exitDx=0;exitDy=0;entryX=0.5;entryY=0;entryDx=0;entryDy=0;" parent="1" source="kR41oFxlcHud7mC-6AMT-1" target="kR41oFxlcHud7mC-6AMT-2" edge="1">
          <mxGeometry relative="1" as="geometry" />
        </mxCell>
        <mxCell id="kR41oFxlcHud7mC-6AMT-8" value="6PWM" style="edgeLabel;html=1;align=center;verticalAlign=middle;resizable=0;points=[];" parent="kR41oFxlcHud7mC-6AMT-6" vertex="1" connectable="0">
          <mxGeometry x="0.2295" relative="1" as="geometry">
            <mxPoint x="27" as="offset" />
          </mxGeometry>
        </mxCell>
        <mxCell id="kR41oFxlcHud7mC-6AMT-7" style="edgeStyle=orthogonalEdgeStyle;rounded=0;orthogonalLoop=1;jettySize=auto;html=1;exitX=0.75;exitY=1;exitDx=0;exitDy=0;entryX=0.5;entryY=0;entryDx=0;entryDy=0;" parent="1" source="kR41oFxlcHud7mC-6AMT-1" target="kR41oFxlcHud7mC-6AMT-3" edge="1">
          <mxGeometry relative="1" as="geometry" />
        </mxCell>
        <mxCell id="kR41oFxlcHud7mC-6AMT-9" value="6PWM" style="edgeLabel;html=1;align=center;verticalAlign=middle;resizable=0;points=[];" parent="kR41oFxlcHud7mC-6AMT-7" vertex="1" connectable="0">
          <mxGeometry x="0.0779" y="1" relative="1" as="geometry">
            <mxPoint as="offset" />
          </mxGeometry>
        </mxCell>
        <mxCell id="kR41oFxlcHud7mC-6AMT-35" style="edgeStyle=orthogonalEdgeStyle;rounded=0;orthogonalLoop=1;jettySize=auto;html=1;exitX=0;exitY=1;exitDx=0;exitDy=0;entryX=0.75;entryY=0;entryDx=0;entryDy=0;" parent="1" source="kR41oFxlcHud7mC-6AMT-1" target="kR41oFxlcHud7mC-6AMT-2" edge="1">
          <mxGeometry relative="1" as="geometry">
            <Array as="points">
              <mxPoint x="540" y="510" />
            </Array>
          </mxGeometry>
        </mxCell>
        <mxCell id="kR41oFxlcHud7mC-6AMT-37" value="电机1 使能" style="edgeLabel;html=1;align=center;verticalAlign=middle;resizable=0;points=[];" parent="kR41oFxlcHud7mC-6AMT-35" vertex="1" connectable="0">
          <mxGeometry x="-0.3886" relative="1" as="geometry">
            <mxPoint x="13" as="offset" />
          </mxGeometry>
        </mxCell>
        <mxCell id="kR41oFxlcHud7mC-6AMT-36" style="edgeStyle=orthogonalEdgeStyle;rounded=0;orthogonalLoop=1;jettySize=auto;html=1;exitX=1;exitY=1;exitDx=0;exitDy=0;entryX=0.25;entryY=0;entryDx=0;entryDy=0;" parent="1" source="kR41oFxlcHud7mC-6AMT-1" target="kR41oFxlcHud7mC-6AMT-3" edge="1">
          <mxGeometry relative="1" as="geometry">
            <Array as="points">
              <mxPoint x="780" y="510" />
            </Array>
          </mxGeometry>
        </mxCell>
        <mxCell id="kR41oFxlcHud7mC-6AMT-38" value="电机2使能" style="edgeLabel;html=1;align=center;verticalAlign=middle;resizable=0;points=[];" parent="kR41oFxlcHud7mC-6AMT-36" vertex="1" connectable="0">
          <mxGeometry x="-0.4114" y="1" relative="1" as="geometry">
            <mxPoint x="-11" y="1" as="offset" />
          </mxGeometry>
        </mxCell>
        <mxCell id="kR41oFxlcHud7mC-6AMT-39" style="edgeStyle=orthogonalEdgeStyle;rounded=0;orthogonalLoop=1;jettySize=auto;html=1;exitX=0.5;exitY=1;exitDx=0;exitDy=0;" parent="1" source="kR41oFxlcHud7mC-6AMT-1" edge="1">
          <mxGeometry relative="1" as="geometry">
            <mxPoint x="659.7586206896551" y="649.9999999999999" as="targetPoint" />
          </mxGeometry>
        </mxCell>
        <mxCell id="kR41oFxlcHud7mC-6AMT-40" value="VBUS ADC采集&lt;br&gt;" style="edgeLabel;html=1;align=center;verticalAlign=middle;resizable=0;points=[];" parent="kR41oFxlcHud7mC-6AMT-39" vertex="1" connectable="0">
          <mxGeometry x="-0.5201" relative="1" as="geometry">
            <mxPoint y="26" as="offset" />
          </mxGeometry>
        </mxCell>
        <mxCell id="kR41oFxlcHud7mC-6AMT-42" style="edgeStyle=orthogonalEdgeStyle;rounded=0;orthogonalLoop=1;jettySize=auto;html=1;exitX=0;exitY=0;exitDx=0;exitDy=0;entryX=1;entryY=0.5;entryDx=0;entryDy=0;startArrow=classic;startFill=1;" parent="1" source="kR41oFxlcHud7mC-6AMT-1" target="kR41oFxlcHud7mC-6AMT-41" edge="1">
          <mxGeometry relative="1" as="geometry" />
        </mxCell>
        <mxCell id="kR41oFxlcHud7mC-6AMT-43" value="FDCAN1&lt;br&gt;" style="edgeLabel;html=1;align=center;verticalAlign=middle;resizable=0;points=[];" parent="kR41oFxlcHud7mC-6AMT-42" vertex="1" connectable="0">
          <mxGeometry x="0.5511" y="-1" relative="1" as="geometry">
            <mxPoint x="8" y="1" as="offset" />
          </mxGeometry>
        </mxCell>
        <mxCell id="kR41oFxlcHud7mC-6AMT-44" style="edgeStyle=orthogonalEdgeStyle;rounded=0;orthogonalLoop=1;jettySize=auto;html=1;exitX=0.5;exitY=0;exitDx=0;exitDy=0;entryX=0.5;entryY=0;entryDx=0;entryDy=0;startArrow=classic;startFill=1;" parent="1" source="kR41oFxlcHud7mC-6AMT-1" target="O9L2-xm8NIZ9MSRCBv3S-1" edge="1">
          <mxGeometry relative="1" as="geometry">
            <mxPoint x="520" y="165" as="targetPoint" />
            <Array as="points">
              <mxPoint x="660" y="165" />
              <mxPoint x="290" y="165" />
            </Array>
          </mxGeometry>
        </mxCell>
        <mxCell id="O9L2-xm8NIZ9MSRCBv3S-25" value="USART1" style="edgeLabel;html=1;align=center;verticalAlign=middle;resizable=0;points=[];" parent="kR41oFxlcHud7mC-6AMT-44" vertex="1" connectable="0">
          <mxGeometry x="0.028" relative="1" as="geometry">
            <mxPoint as="offset" />
          </mxGeometry>
        </mxCell>
        <mxCell id="kR41oFxlcHud7mC-6AMT-47" style="edgeStyle=orthogonalEdgeStyle;rounded=0;orthogonalLoop=1;jettySize=auto;html=1;exitX=0.75;exitY=0;exitDx=0;exitDy=0;entryX=1;entryY=0.5;entryDx=0;entryDy=0;startArrow=classic;startFill=1;" parent="1" source="kR41oFxlcHud7mC-6AMT-1" target="kR41oFxlcHud7mC-6AMT-48" edge="1">
          <mxGeometry relative="1" as="geometry">
            <mxPoint x="660.1428571428571" y="130" as="targetPoint" />
          </mxGeometry>
        </mxCell>
        <mxCell id="kR41oFxlcHud7mC-6AMT-49" value="USART3" style="edgeLabel;html=1;align=center;verticalAlign=middle;resizable=0;points=[];" parent="kR41oFxlcHud7mC-6AMT-47" vertex="1" connectable="0">
          <mxGeometry x="0.7294" relative="1" as="geometry">
            <mxPoint x="3" as="offset" />
          </mxGeometry>
        </mxCell>
        <mxCell id="kR41oFxlcHud7mC-6AMT-56" style="edgeStyle=orthogonalEdgeStyle;rounded=0;orthogonalLoop=1;jettySize=auto;html=1;exitX=0.25;exitY=0;exitDx=0;exitDy=0;entryX=1;entryY=0.5;entryDx=0;entryDy=0;startArrow=classic;startFill=1;" parent="1" source="kR41oFxlcHud7mC-6AMT-1" target="kR41oFxlcHud7mC-6AMT-51" edge="1">
          <mxGeometry relative="1" as="geometry" />
        </mxCell>
        <mxCell id="kR41oFxlcHud7mC-6AMT-58" value="FDCAN2&lt;br&gt;" style="edgeLabel;html=1;align=center;verticalAlign=middle;resizable=0;points=[];" parent="kR41oFxlcHud7mC-6AMT-56" vertex="1" connectable="0">
          <mxGeometry x="0.5552" y="-1" relative="1" as="geometry">
            <mxPoint x="-17" y="1" as="offset" />
          </mxGeometry>
        </mxCell>
        <mxCell id="kR41oFxlcHud7mC-6AMT-59" style="edgeStyle=orthogonalEdgeStyle;rounded=0;orthogonalLoop=1;jettySize=auto;html=1;exitX=1;exitY=0;exitDx=0;exitDy=0;entryX=0;entryY=0.5;entryDx=0;entryDy=0;startArrow=classic;startFill=1;" parent="1" source="kR41oFxlcHud7mC-6AMT-1" target="kR41oFxlcHud7mC-6AMT-60" edge="1">
          <mxGeometry relative="1" as="geometry">
            <mxPoint x="770" y="310" as="targetPoint" />
          </mxGeometry>
        </mxCell>
        <mxCell id="kR41oFxlcHud7mC-6AMT-68" value="STLINKV3E" style="edgeLabel;html=1;align=center;verticalAlign=middle;resizable=0;points=[];" parent="kR41oFxlcHud7mC-6AMT-59" vertex="1" connectable="0">
          <mxGeometry x="0.4293" y="1" relative="1" as="geometry">
            <mxPoint as="offset" />
          </mxGeometry>
        </mxCell>
        <mxCell id="kR41oFxlcHud7mC-6AMT-1" value="STM32G474RETx（主控芯片，数据处理，FOC控制）" style="whiteSpace=wrap;html=1;aspect=fixed;" parent="1" vertex="1">
          <mxGeometry x="600" y="390" width="120" height="120" as="geometry" />
        </mxCell>
        <mxCell id="kR41oFxlcHud7mC-6AMT-15" style="edgeStyle=orthogonalEdgeStyle;rounded=0;orthogonalLoop=1;jettySize=auto;html=1;exitX=0.5;exitY=1;exitDx=0;exitDy=0;entryX=0.5;entryY=0;entryDx=0;entryDy=0;" parent="1" source="kR41oFxlcHud7mC-6AMT-2" target="kR41oFxlcHud7mC-6AMT-10" edge="1">
          <mxGeometry relative="1" as="geometry" />
        </mxCell>
        <mxCell id="kR41oFxlcHud7mC-6AMT-27" style="edgeStyle=orthogonalEdgeStyle;rounded=0;orthogonalLoop=1;jettySize=auto;html=1;exitX=0.25;exitY=0;exitDx=0;exitDy=0;entryX=0;entryY=0.75;entryDx=0;entryDy=0;" parent="1" source="kR41oFxlcHud7mC-6AMT-2" target="kR41oFxlcHud7mC-6AMT-1" edge="1">
          <mxGeometry relative="1" as="geometry">
            <mxPoint x="590" y="510" as="targetPoint" />
            <Array as="points">
              <mxPoint x="500" y="480" />
            </Array>
          </mxGeometry>
        </mxCell>
        <mxCell id="kR41oFxlcHud7mC-6AMT-28" value="电流传感器 3通道ADC" style="edgeLabel;html=1;align=center;verticalAlign=middle;resizable=0;points=[];" parent="kR41oFxlcHud7mC-6AMT-27" vertex="1" connectable="0">
          <mxGeometry x="0.3285" y="2" relative="1" as="geometry">
            <mxPoint as="offset" />
          </mxGeometry>
        </mxCell>
        <mxCell id="O9L2-xm8NIZ9MSRCBv3S-2" style="edgeStyle=orthogonalEdgeStyle;rounded=0;orthogonalLoop=1;jettySize=auto;html=1;exitX=0;exitY=0.5;exitDx=0;exitDy=0;entryX=0.5;entryY=1;entryDx=0;entryDy=0;" parent="1" source="kR41oFxlcHud7mC-6AMT-2" target="O9L2-xm8NIZ9MSRCBv3S-1" edge="1">
          <mxGeometry relative="1" as="geometry" />
        </mxCell>
        <mxCell id="O9L2-xm8NIZ9MSRCBv3S-5" value="SPI" style="edgeLabel;html=1;align=center;verticalAlign=middle;resizable=0;points=[];" parent="O9L2-xm8NIZ9MSRCBv3S-2" vertex="1" connectable="0">
          <mxGeometry x="0.1482" y="-2" relative="1" as="geometry">
            <mxPoint as="offset" />
          </mxGeometry>
        </mxCell>
        <mxCell id="O9L2-xm8NIZ9MSRCBv3S-16" style="edgeStyle=orthogonalEdgeStyle;rounded=0;orthogonalLoop=1;jettySize=auto;html=1;exitX=0;exitY=0.75;exitDx=0;exitDy=0;entryX=0.5;entryY=0;entryDx=0;entryDy=0;" parent="1" source="kR41oFxlcHud7mC-6AMT-2" target="O9L2-xm8NIZ9MSRCBv3S-13" edge="1">
          <mxGeometry relative="1" as="geometry" />
        </mxCell>
        <mxCell id="O9L2-xm8NIZ9MSRCBv3S-17" style="edgeStyle=orthogonalEdgeStyle;rounded=0;orthogonalLoop=1;jettySize=auto;html=1;exitX=0;exitY=0.25;exitDx=0;exitDy=0;entryX=0.75;entryY=1;entryDx=0;entryDy=0;" parent="1" source="kR41oFxlcHud7mC-6AMT-2" target="O9L2-xm8NIZ9MSRCBv3S-1" edge="1">
          <mxGeometry relative="1" as="geometry" />
        </mxCell>
        <mxCell id="O9L2-xm8NIZ9MSRCBv3S-18" value="&lt;font style=&quot;font-size: 8px;&quot;&gt;GPIO故障状态&lt;/font&gt;" style="edgeLabel;html=1;align=center;verticalAlign=middle;resizable=0;points=[];" parent="O9L2-xm8NIZ9MSRCBv3S-17" vertex="1" connectable="0">
          <mxGeometry x="0.2113" y="-3" relative="1" as="geometry">
            <mxPoint x="-8" as="offset" />
          </mxGeometry>
        </mxCell>
        <mxCell id="kR41oFxlcHud7mC-6AMT-2" value="DRV8301（驱动芯片1）" style="whiteSpace=wrap;html=1;aspect=fixed;" parent="1" vertex="1">
          <mxGeometry x="480" y="590" width="80" height="80" as="geometry" />
        </mxCell>
        <mxCell id="kR41oFxlcHud7mC-6AMT-16" style="edgeStyle=orthogonalEdgeStyle;rounded=0;orthogonalLoop=1;jettySize=auto;html=1;exitX=0.5;exitY=1;exitDx=0;exitDy=0;entryX=0.5;entryY=0;entryDx=0;entryDy=0;" parent="1" source="kR41oFxlcHud7mC-6AMT-3" target="kR41oFxlcHud7mC-6AMT-11" edge="1">
          <mxGeometry relative="1" as="geometry" />
        </mxCell>
        <mxCell id="kR41oFxlcHud7mC-6AMT-29" style="edgeStyle=orthogonalEdgeStyle;rounded=0;orthogonalLoop=1;jettySize=auto;html=1;exitX=0.75;exitY=0;exitDx=0;exitDy=0;entryX=1;entryY=0.75;entryDx=0;entryDy=0;" parent="1" source="kR41oFxlcHud7mC-6AMT-3" target="kR41oFxlcHud7mC-6AMT-1" edge="1">
          <mxGeometry relative="1" as="geometry" />
        </mxCell>
        <mxCell id="kR41oFxlcHud7mC-6AMT-30" value="电流传感器 3通道ADC" style="edgeLabel;html=1;align=center;verticalAlign=middle;resizable=0;points=[];" parent="kR41oFxlcHud7mC-6AMT-29" vertex="1" connectable="0">
          <mxGeometry x="0.5901" relative="1" as="geometry">
            <mxPoint x="37" as="offset" />
          </mxGeometry>
        </mxCell>
        <mxCell id="O9L2-xm8NIZ9MSRCBv3S-3" style="edgeStyle=orthogonalEdgeStyle;rounded=0;orthogonalLoop=1;jettySize=auto;html=1;exitX=0;exitY=0.5;exitDx=0;exitDy=0;entryX=1;entryY=0.5;entryDx=0;entryDy=0;" parent="1" source="kR41oFxlcHud7mC-6AMT-3" target="O9L2-xm8NIZ9MSRCBv3S-1" edge="1">
          <mxGeometry relative="1" as="geometry">
            <Array as="points">
              <mxPoint x="700" y="630" />
              <mxPoint x="700" y="680" />
              <mxPoint x="400" y="680" />
              <mxPoint x="400" y="540" />
            </Array>
          </mxGeometry>
        </mxCell>
        <mxCell id="O9L2-xm8NIZ9MSRCBv3S-4" value="SPI" style="edgeLabel;html=1;align=center;verticalAlign=middle;resizable=0;points=[];" parent="O9L2-xm8NIZ9MSRCBv3S-3" vertex="1" connectable="0">
          <mxGeometry x="-0.3594" y="1" relative="1" as="geometry">
            <mxPoint as="offset" />
          </mxGeometry>
        </mxCell>
        <mxCell id="O9L2-xm8NIZ9MSRCBv3S-15" style="edgeStyle=orthogonalEdgeStyle;rounded=0;orthogonalLoop=1;jettySize=auto;html=1;exitX=1;exitY=0.5;exitDx=0;exitDy=0;entryX=0.5;entryY=0;entryDx=0;entryDy=0;" parent="1" source="kR41oFxlcHud7mC-6AMT-3" target="O9L2-xm8NIZ9MSRCBv3S-14" edge="1">
          <mxGeometry relative="1" as="geometry" />
        </mxCell>
        <mxCell id="O9L2-xm8NIZ9MSRCBv3S-19" style="edgeStyle=orthogonalEdgeStyle;rounded=0;orthogonalLoop=1;jettySize=auto;html=1;exitX=0;exitY=0.25;exitDx=0;exitDy=0;entryX=1;entryY=0.25;entryDx=0;entryDy=0;" parent="1" source="kR41oFxlcHud7mC-6AMT-3" target="O9L2-xm8NIZ9MSRCBv3S-1" edge="1">
          <mxGeometry relative="1" as="geometry">
            <Array as="points">
              <mxPoint x="610" y="610" />
              <mxPoint x="610" y="570" />
              <mxPoint x="410" y="570" />
              <mxPoint x="410" y="515" />
            </Array>
          </mxGeometry>
        </mxCell>
        <mxCell id="O9L2-xm8NIZ9MSRCBv3S-20" value="&lt;font style=&quot;font-size: 8px;&quot;&gt;GPIO故障状态&lt;/font&gt;" style="edgeLabel;html=1;align=center;verticalAlign=middle;resizable=0;points=[];" parent="O9L2-xm8NIZ9MSRCBv3S-19" vertex="1" connectable="0">
          <mxGeometry x="0.8364" y="-2" relative="1" as="geometry">
            <mxPoint as="offset" />
          </mxGeometry>
        </mxCell>
        <mxCell id="kR41oFxlcHud7mC-6AMT-3" value="DRV8301（驱动芯片2）" style="whiteSpace=wrap;html=1;aspect=fixed;" parent="1" vertex="1">
          <mxGeometry x="760" y="590" width="80" height="80" as="geometry" />
        </mxCell>
        <mxCell id="kR41oFxlcHud7mC-6AMT-17" style="edgeStyle=orthogonalEdgeStyle;rounded=0;orthogonalLoop=1;jettySize=auto;html=1;exitX=0;exitY=0.5;exitDx=0;exitDy=0;entryX=0;entryY=0.5;entryDx=0;entryDy=0;" parent="1" source="kR41oFxlcHud7mC-6AMT-10" target="kR41oFxlcHud7mC-6AMT-1" edge="1">
          <mxGeometry relative="1" as="geometry">
            <mxPoint x="460" y="690" as="targetPoint" />
          </mxGeometry>
        </mxCell>
        <mxCell id="kR41oFxlcHud7mC-6AMT-19" value="IIC1 Encoder" style="edgeLabel;html=1;align=center;verticalAlign=middle;resizable=0;points=[];" parent="kR41oFxlcHud7mC-6AMT-17" vertex="1" connectable="0">
          <mxGeometry x="0.5833" relative="1" as="geometry">
            <mxPoint as="offset" />
          </mxGeometry>
        </mxCell>
        <mxCell id="kR41oFxlcHud7mC-6AMT-21" style="edgeStyle=orthogonalEdgeStyle;rounded=0;orthogonalLoop=1;jettySize=auto;html=1;exitX=0;exitY=1;exitDx=0;exitDy=0;entryX=0;entryY=0.25;entryDx=0;entryDy=0;" parent="1" source="kR41oFxlcHud7mC-6AMT-10" target="kR41oFxlcHud7mC-6AMT-1" edge="1">
          <mxGeometry relative="1" as="geometry">
            <mxPoint x="430" y="440" as="targetPoint" />
            <Array as="points">
              <mxPoint x="430" y="778" />
              <mxPoint x="430" y="420" />
            </Array>
          </mxGeometry>
        </mxCell>
        <mxCell id="kR41oFxlcHud7mC-6AMT-23" value="ABZ&amp;amp;HALL Encoder" style="edgeLabel;html=1;align=center;verticalAlign=middle;resizable=0;points=[];" parent="kR41oFxlcHud7mC-6AMT-21" vertex="1" connectable="0">
          <mxGeometry x="0.6732" relative="1" as="geometry">
            <mxPoint as="offset" />
          </mxGeometry>
        </mxCell>
        <mxCell id="kR41oFxlcHud7mC-6AMT-10" value="M1" style="ellipse;whiteSpace=wrap;html=1;aspect=fixed;" parent="1" vertex="1">
          <mxGeometry x="480" y="710" width="80" height="80" as="geometry" />
        </mxCell>
        <mxCell id="kR41oFxlcHud7mC-6AMT-18" style="edgeStyle=orthogonalEdgeStyle;rounded=0;orthogonalLoop=1;jettySize=auto;html=1;exitX=1;exitY=0.5;exitDx=0;exitDy=0;entryX=1;entryY=0.5;entryDx=0;entryDy=0;" parent="1" source="kR41oFxlcHud7mC-6AMT-11" target="kR41oFxlcHud7mC-6AMT-1" edge="1">
          <mxGeometry relative="1" as="geometry" />
        </mxCell>
        <mxCell id="kR41oFxlcHud7mC-6AMT-20" value="IIC2 Encoder" style="edgeLabel;html=1;align=center;verticalAlign=middle;resizable=0;points=[];" parent="kR41oFxlcHud7mC-6AMT-18" vertex="1" connectable="0">
          <mxGeometry x="0.6131" relative="1" as="geometry">
            <mxPoint as="offset" />
          </mxGeometry>
        </mxCell>
        <mxCell id="kR41oFxlcHud7mC-6AMT-22" style="edgeStyle=orthogonalEdgeStyle;rounded=0;orthogonalLoop=1;jettySize=auto;html=1;exitX=1;exitY=1;exitDx=0;exitDy=0;entryX=1;entryY=0.25;entryDx=0;entryDy=0;" parent="1" source="kR41oFxlcHud7mC-6AMT-11" target="kR41oFxlcHud7mC-6AMT-1" edge="1">
          <mxGeometry relative="1" as="geometry">
            <Array as="points">
              <mxPoint x="890" y="778" />
              <mxPoint x="890" y="420" />
            </Array>
          </mxGeometry>
        </mxCell>
        <mxCell id="kR41oFxlcHud7mC-6AMT-24" value="ABZ&amp;amp;HALL Encoder" style="edgeLabel;html=1;align=center;verticalAlign=middle;resizable=0;points=[];" parent="kR41oFxlcHud7mC-6AMT-22" vertex="1" connectable="0">
          <mxGeometry x="0.6993" y="1" relative="1" as="geometry">
            <mxPoint as="offset" />
          </mxGeometry>
        </mxCell>
        <mxCell id="kR41oFxlcHud7mC-6AMT-11" value="M2" style="ellipse;whiteSpace=wrap;html=1;aspect=fixed;" parent="1" vertex="1">
          <mxGeometry x="760" y="710" width="80" height="80" as="geometry" />
        </mxCell>
        <mxCell id="kR41oFxlcHud7mC-6AMT-31" style="edgeStyle=orthogonalEdgeStyle;rounded=0;orthogonalLoop=1;jettySize=auto;html=1;exitX=0;exitY=0.25;exitDx=0;exitDy=0;entryX=0;entryY=0.75;entryDx=0;entryDy=0;strokeWidth=2;fillColor=#f8cecc;strokeColor=#b85450;" parent="1" source="kR41oFxlcHud7mC-6AMT-25" target="kR41oFxlcHud7mC-6AMT-3" edge="1">
          <mxGeometry relative="1" as="geometry">
            <mxPoint x="1000" y="700" as="targetPoint" />
            <Array as="points">
              <mxPoint x="730" y="570" />
              <mxPoint x="730" y="650" />
            </Array>
          </mxGeometry>
        </mxCell>
        <mxCell id="kR41oFxlcHud7mC-6AMT-32" style="edgeStyle=orthogonalEdgeStyle;rounded=0;orthogonalLoop=1;jettySize=auto;html=1;exitX=0;exitY=0.25;exitDx=0;exitDy=0;entryX=1;entryY=0.75;entryDx=0;entryDy=0;fillColor=#f8cecc;strokeColor=#b85450;strokeWidth=2;" parent="1" source="kR41oFxlcHud7mC-6AMT-25" target="kR41oFxlcHud7mC-6AMT-2" edge="1">
          <mxGeometry relative="1" as="geometry">
            <mxPoint x="1070" y="629.9999999999999" as="sourcePoint" />
            <mxPoint x="550" y="649.9999999999999" as="targetPoint" />
            <Array as="points">
              <mxPoint x="730" y="570" />
              <mxPoint x="730" y="650" />
            </Array>
          </mxGeometry>
        </mxCell>
        <mxCell id="kR41oFxlcHud7mC-6AMT-63" style="edgeStyle=orthogonalEdgeStyle;rounded=0;orthogonalLoop=1;jettySize=auto;html=1;exitX=0.5;exitY=0;exitDx=0;exitDy=0;entryX=0.5;entryY=1;entryDx=0;entryDy=0;strokeWidth=2;fillColor=#f8cecc;strokeColor=#b85450;" parent="1" source="kR41oFxlcHud7mC-6AMT-25" target="kR41oFxlcHud7mC-6AMT-61" edge="1">
          <mxGeometry relative="1" as="geometry" />
        </mxCell>
        <mxCell id="O9L2-xm8NIZ9MSRCBv3S-37" style="edgeStyle=orthogonalEdgeStyle;rounded=0;orthogonalLoop=1;jettySize=auto;html=1;exitX=1;exitY=0.5;exitDx=0;exitDy=0;entryX=1;entryY=0.75;entryDx=0;entryDy=0;" parent="1" source="kR41oFxlcHud7mC-6AMT-25" target="O9L2-xm8NIZ9MSRCBv3S-1" edge="1">
          <mxGeometry relative="1" as="geometry">
            <Array as="points">
              <mxPoint x="1110" y="570" />
              <mxPoint x="1110" y="810" />
              <mxPoint x="390" y="810" />
              <mxPoint x="390" y="565" />
            </Array>
          </mxGeometry>
        </mxCell>
        <mxCell id="O9L2-xm8NIZ9MSRCBv3S-38" value="电源状态检测" style="edgeLabel;html=1;align=center;verticalAlign=middle;resizable=0;points=[];" parent="O9L2-xm8NIZ9MSRCBv3S-37" vertex="1" connectable="0">
          <mxGeometry x="0.1426" y="-1" relative="1" as="geometry">
            <mxPoint as="offset" />
          </mxGeometry>
        </mxCell>
        <mxCell id="kR41oFxlcHud7mC-6AMT-25" value="6V-65V 电源输入" style="whiteSpace=wrap;html=1;aspect=fixed;" parent="1" vertex="1">
          <mxGeometry x="1010" y="530" width="80" height="80" as="geometry" />
        </mxCell>
        <mxCell id="kR41oFxlcHud7mC-6AMT-53" style="edgeStyle=orthogonalEdgeStyle;rounded=0;orthogonalLoop=1;jettySize=auto;html=1;exitX=0;exitY=0.5;exitDx=0;exitDy=0;entryX=1;entryY=0.5;entryDx=0;entryDy=0;startArrow=classic;startFill=1;" parent="1" source="kR41oFxlcHud7mC-6AMT-41" target="kR41oFxlcHud7mC-6AMT-52" edge="1">
          <mxGeometry relative="1" as="geometry" />
        </mxCell>
        <mxCell id="kR41oFxlcHud7mC-6AMT-41" value="CAN模块1" style="whiteSpace=wrap;html=1;aspect=fixed;" parent="1" vertex="1">
          <mxGeometry x="450" y="290" width="70" height="70" as="geometry" />
        </mxCell>
        <mxCell id="kR41oFxlcHud7mC-6AMT-48" value="串口2" style="whiteSpace=wrap;html=1;aspect=fixed;" parent="1" vertex="1">
          <mxGeometry x="450" y="30" width="70" height="70" as="geometry" />
        </mxCell>
        <mxCell id="kR41oFxlcHud7mC-6AMT-55" style="edgeStyle=orthogonalEdgeStyle;rounded=0;orthogonalLoop=1;jettySize=auto;html=1;exitX=0;exitY=0.5;exitDx=0;exitDy=0;entryX=1;entryY=0.5;entryDx=0;entryDy=0;startArrow=classic;startFill=1;" parent="1" source="kR41oFxlcHud7mC-6AMT-51" target="kR41oFxlcHud7mC-6AMT-54" edge="1">
          <mxGeometry relative="1" as="geometry" />
        </mxCell>
        <mxCell id="kR41oFxlcHud7mC-6AMT-51" value="CAN模块2" style="whiteSpace=wrap;html=1;aspect=fixed;" parent="1" vertex="1">
          <mxGeometry x="450" y="210" width="70" height="70" as="geometry" />
        </mxCell>
        <mxCell id="kR41oFxlcHud7mC-6AMT-52" value="CAN接口1" style="whiteSpace=wrap;html=1;aspect=fixed;" parent="1" vertex="1">
          <mxGeometry x="350" y="290" width="70" height="70" as="geometry" />
        </mxCell>
        <mxCell id="kR41oFxlcHud7mC-6AMT-54" value="CAN接口2" style="whiteSpace=wrap;html=1;aspect=fixed;" parent="1" vertex="1">
          <mxGeometry x="350" y="210" width="70" height="70" as="geometry" />
        </mxCell>
        <mxCell id="kR41oFxlcHud7mC-6AMT-60" value="Debug SWD接口" style="whiteSpace=wrap;html=1;aspect=fixed;" parent="1" vertex="1">
          <mxGeometry x="850" y="270" width="80" height="80" as="geometry" />
        </mxCell>
        <mxCell id="kR41oFxlcHud7mC-6AMT-64" style="edgeStyle=orthogonalEdgeStyle;rounded=0;orthogonalLoop=1;jettySize=auto;html=1;exitX=0;exitY=0.5;exitDx=0;exitDy=0;strokeWidth=2;fillColor=#f8cecc;strokeColor=#b85450;" parent="1" source="kR41oFxlcHud7mC-6AMT-61" edge="1">
          <mxGeometry relative="1" as="geometry">
            <mxPoint x="890" y="420" as="targetPoint" />
          </mxGeometry>
        </mxCell>
        <mxCell id="kR41oFxlcHud7mC-6AMT-66" style="edgeStyle=orthogonalEdgeStyle;rounded=0;orthogonalLoop=1;jettySize=auto;html=1;exitX=0.5;exitY=0;exitDx=0;exitDy=0;entryX=0.5;entryY=1;entryDx=0;entryDy=0;strokeWidth=2;fillColor=#f8cecc;strokeColor=#b85450;" parent="1" source="kR41oFxlcHud7mC-6AMT-61" target="kR41oFxlcHud7mC-6AMT-62" edge="1">
          <mxGeometry relative="1" as="geometry" />
        </mxCell>
        <mxCell id="kR41oFxlcHud7mC-6AMT-67" style="edgeStyle=orthogonalEdgeStyle;rounded=0;orthogonalLoop=1;jettySize=auto;html=1;exitX=0;exitY=0.5;exitDx=0;exitDy=0;strokeWidth=2;fillColor=#f8cecc;strokeColor=#b85450;" parent="1" source="kR41oFxlcHud7mC-6AMT-61" edge="1">
          <mxGeometry relative="1" as="geometry">
            <mxPoint x="860" y="450" as="targetPoint" />
          </mxGeometry>
        </mxCell>
        <mxCell id="kR41oFxlcHud7mC-6AMT-61" value="65V转5V" style="whiteSpace=wrap;html=1;aspect=fixed;" parent="1" vertex="1">
          <mxGeometry x="1010" y="410" width="80" height="80" as="geometry" />
        </mxCell>
        <mxCell id="kR41oFxlcHud7mC-6AMT-65" style="edgeStyle=orthogonalEdgeStyle;rounded=0;orthogonalLoop=1;jettySize=auto;html=1;entryX=1;entryY=0;entryDx=0;entryDy=0;exitX=0;exitY=0.5;exitDx=0;exitDy=0;strokeWidth=2;fillColor=#f8cecc;strokeColor=#b85450;" parent="1" source="kR41oFxlcHud7mC-6AMT-62" target="kR41oFxlcHud7mC-6AMT-1" edge="1">
          <mxGeometry relative="1" as="geometry">
            <mxPoint x="960" y="350" as="sourcePoint" />
            <Array as="points">
              <mxPoint x="960" y="350" />
              <mxPoint x="960" y="390" />
            </Array>
          </mxGeometry>
        </mxCell>
        <mxCell id="O9L2-xm8NIZ9MSRCBv3S-28" style="edgeStyle=orthogonalEdgeStyle;rounded=0;orthogonalLoop=1;jettySize=auto;html=1;exitX=1;exitY=0.5;exitDx=0;exitDy=0;entryX=0;entryY=0;entryDx=0;entryDy=0;fillColor=#f8cecc;strokeColor=#b85450;strokeWidth=3;" parent="1" source="kR41oFxlcHud7mC-6AMT-62" target="O9L2-xm8NIZ9MSRCBv3S-1" edge="1">
          <mxGeometry relative="1" as="geometry">
            <Array as="points">
              <mxPoint x="1110" y="350" />
              <mxPoint x="1110" y="20" />
              <mxPoint x="240" y="20" />
            </Array>
          </mxGeometry>
        </mxCell>
        <mxCell id="kR41oFxlcHud7mC-6AMT-62" value="5V转3.3V" style="whiteSpace=wrap;html=1;aspect=fixed;" parent="1" vertex="1">
          <mxGeometry x="1010" y="310" width="80" height="80" as="geometry" />
        </mxCell>
        <mxCell id="kR41oFxlcHud7mC-6AMT-69" value="Actor" style="shape=umlActor;verticalLabelPosition=bottom;verticalAlign=top;html=1;outlineConnect=0;" parent="1" vertex="1">
          <mxGeometry x="1040" y="690" width="30" height="60" as="geometry" />
        </mxCell>
        <mxCell id="O9L2-xm8NIZ9MSRCBv3S-9" style="edgeStyle=orthogonalEdgeStyle;rounded=0;orthogonalLoop=1;jettySize=auto;html=1;exitX=0;exitY=0.5;exitDx=0;exitDy=0;entryX=0.5;entryY=1;entryDx=0;entryDy=0;" parent="1" source="O9L2-xm8NIZ9MSRCBv3S-1" target="O9L2-xm8NIZ9MSRCBv3S-8" edge="1">
          <mxGeometry relative="1" as="geometry">
            <Array as="points">
              <mxPoint x="165" y="540" />
            </Array>
          </mxGeometry>
        </mxCell>
        <mxCell id="O9L2-xm8NIZ9MSRCBv3S-23" style="edgeStyle=orthogonalEdgeStyle;rounded=0;orthogonalLoop=1;jettySize=auto;html=1;exitX=0;exitY=0.75;exitDx=0;exitDy=0;entryX=0.5;entryY=1;entryDx=0;entryDy=0;" parent="1" source="O9L2-xm8NIZ9MSRCBv3S-1" target="O9L2-xm8NIZ9MSRCBv3S-22" edge="1">
          <mxGeometry relative="1" as="geometry">
            <Array as="points">
              <mxPoint x="95" y="565" />
            </Array>
          </mxGeometry>
        </mxCell>
        <mxCell id="O9L2-xm8NIZ9MSRCBv3S-1" value="STM32F103C8T6（两路DRV8301参数设置，故障检测处理，安全防护）" style="whiteSpace=wrap;html=1;aspect=fixed;" parent="1" vertex="1">
          <mxGeometry x="240" y="490" width="100" height="100" as="geometry" />
        </mxCell>
        <mxCell id="O9L2-xm8NIZ9MSRCBv3S-8" value="IIC OLED屏幕接口" style="whiteSpace=wrap;html=1;aspect=fixed;" parent="1" vertex="1">
          <mxGeometry x="130" y="415" width="70" height="70" as="geometry" />
        </mxCell>
        <mxCell id="O9L2-xm8NIZ9MSRCBv3S-13" value="LED &lt;br&gt;故障指示灯" style="whiteSpace=wrap;html=1;aspect=fixed;" parent="1" vertex="1">
          <mxGeometry x="300" y="685" width="70" height="70" as="geometry" />
        </mxCell>
        <mxCell id="O9L2-xm8NIZ9MSRCBv3S-14" value="LED &lt;br&gt;故障指示灯" style="whiteSpace=wrap;html=1;aspect=fixed;" parent="1" vertex="1">
          <mxGeometry x="910" y="650" width="70" height="70" as="geometry" />
        </mxCell>
        <mxCell id="O9L2-xm8NIZ9MSRCBv3S-22" value="IIC OLED屏幕接口" style="whiteSpace=wrap;html=1;aspect=fixed;" parent="1" vertex="1">
          <mxGeometry x="60" y="415" width="70" height="70" as="geometry" />
        </mxCell>
        <mxCell id="O9L2-xm8NIZ9MSRCBv3S-27" style="edgeStyle=orthogonalEdgeStyle;rounded=0;orthogonalLoop=1;jettySize=auto;html=1;exitX=1;exitY=0.5;exitDx=0;exitDy=0;entryX=0.25;entryY=1;entryDx=0;entryDy=0;startArrow=classic;startFill=1;" parent="1" source="O9L2-xm8NIZ9MSRCBv3S-26" target="O9L2-xm8NIZ9MSRCBv3S-1" edge="1">
          <mxGeometry relative="1" as="geometry" />
        </mxCell>
        <mxCell id="O9L2-xm8NIZ9MSRCBv3S-26" value="Debug SWD接口" style="whiteSpace=wrap;html=1;aspect=fixed;" parent="1" vertex="1">
          <mxGeometry x="140" y="610" width="80" height="80" as="geometry" />
        </mxCell>
        <mxCell id="O9L2-xm8NIZ9MSRCBv3S-32" style="edgeStyle=orthogonalEdgeStyle;rounded=0;orthogonalLoop=1;jettySize=auto;html=1;exitX=1;exitY=0.5;exitDx=0;exitDy=0;entryX=0.25;entryY=0;entryDx=0;entryDy=0;" parent="1" source="O9L2-xm8NIZ9MSRCBv3S-29" target="O9L2-xm8NIZ9MSRCBv3S-1" edge="1">
          <mxGeometry relative="1" as="geometry" />
        </mxCell>
        <mxCell id="O9L2-xm8NIZ9MSRCBv3S-29" value="板载温度传感器（1）" style="whiteSpace=wrap;html=1;aspect=fixed;" parent="1" vertex="1">
          <mxGeometry x="130" y="320" width="70" height="70" as="geometry" />
        </mxCell>
        <mxCell id="O9L2-xm8NIZ9MSRCBv3S-31" style="edgeStyle=orthogonalEdgeStyle;rounded=0;orthogonalLoop=1;jettySize=auto;html=1;exitX=0.25;exitY=1;exitDx=0;exitDy=0;entryX=0.75;entryY=0;entryDx=0;entryDy=0;" parent="1" source="O9L2-xm8NIZ9MSRCBv3S-30" target="O9L2-xm8NIZ9MSRCBv3S-1" edge="1">
          <mxGeometry relative="1" as="geometry" />
        </mxCell>
        <mxCell id="O9L2-xm8NIZ9MSRCBv3S-30" value="板载温度传感器（2）" style="whiteSpace=wrap;html=1;aspect=fixed;" parent="1" vertex="1">
          <mxGeometry x="350" y="379" width="70" height="70" as="geometry" />
        </mxCell>
        <mxCell id="O9L2-xm8NIZ9MSRCBv3S-35" style="edgeStyle=orthogonalEdgeStyle;rounded=0;orthogonalLoop=1;jettySize=auto;html=1;exitX=0.5;exitY=0;exitDx=0;exitDy=0;entryX=0;entryY=0.25;entryDx=0;entryDy=0;" parent="1" source="O9L2-xm8NIZ9MSRCBv3S-33" target="O9L2-xm8NIZ9MSRCBv3S-1" edge="1">
          <mxGeometry relative="1" as="geometry" />
        </mxCell>
        <mxCell id="O9L2-xm8NIZ9MSRCBv3S-33" value="电机温度传感器（1）" style="whiteSpace=wrap;html=1;aspect=fixed;" parent="1" vertex="1">
          <mxGeometry x="40" y="615" width="70" height="70" as="geometry" />
        </mxCell>
        <mxCell id="O9L2-xm8NIZ9MSRCBv3S-36" style="edgeStyle=orthogonalEdgeStyle;rounded=0;orthogonalLoop=1;jettySize=auto;html=1;exitX=1;exitY=0.5;exitDx=0;exitDy=0;entryX=0;entryY=1;entryDx=0;entryDy=0;" parent="1" source="O9L2-xm8NIZ9MSRCBv3S-34" target="O9L2-xm8NIZ9MSRCBv3S-1" edge="1">
          <mxGeometry relative="1" as="geometry" />
        </mxCell>
        <mxCell id="O9L2-xm8NIZ9MSRCBv3S-34" value="电机温度传感器（2）" style="whiteSpace=wrap;html=1;aspect=fixed;" parent="1" vertex="1">
          <mxGeometry x="145" y="720" width="70" height="70" as="geometry" />
        </mxCell>
        <mxCell id="YGqzZbpvIEdZNva2nziw-1" value="CAN接口1" style="whiteSpace=wrap;html=1;aspect=fixed;" vertex="1" parent="1">
          <mxGeometry x="20" y="210" width="70" height="70" as="geometry" />
        </mxCell>
        <mxCell id="YGqzZbpvIEdZNva2nziw-3" style="edgeStyle=orthogonalEdgeStyle;rounded=0;orthogonalLoop=1;jettySize=auto;html=1;exitX=0;exitY=0.5;exitDx=0;exitDy=0;entryX=1;entryY=0.5;entryDx=0;entryDy=0;startArrow=classic;startFill=1;" edge="1" parent="1" source="YGqzZbpvIEdZNva2nziw-2" target="YGqzZbpvIEdZNva2nziw-1">
          <mxGeometry relative="1" as="geometry" />
        </mxCell>
        <mxCell id="YGqzZbpvIEdZNva2nziw-4" style="edgeStyle=orthogonalEdgeStyle;rounded=0;orthogonalLoop=1;jettySize=auto;html=1;exitX=1;exitY=0.5;exitDx=0;exitDy=0;entryX=1;entryY=0;entryDx=0;entryDy=0;startArrow=classic;startFill=1;" edge="1" parent="1" source="YGqzZbpvIEdZNva2nziw-2" target="O9L2-xm8NIZ9MSRCBv3S-1">
          <mxGeometry relative="1" as="geometry">
            <Array as="points">
              <mxPoint x="320" y="245" />
              <mxPoint x="320" y="430" />
              <mxPoint x="340" y="430" />
            </Array>
          </mxGeometry>
        </mxCell>
        <mxCell id="YGqzZbpvIEdZNva2nziw-2" value="CAN模块1" style="whiteSpace=wrap;html=1;aspect=fixed;" vertex="1" parent="1">
          <mxGeometry x="130" y="210" width="70" height="70" as="geometry" />
        </mxCell>
      </root>
    </mxGraphModel>
  </diagram>
</mxfile>
